<svg width="256" height="256" viewBox="0 0 256 256" fill="none" xmlns="http://www.w3.org/2000/svg">
<rect width="256" height="256" rx="32" fill="#D5E7E3"/>
<path d="M94.5 193.5C28.5192 193.5 21.6703 240.585 15.7029 224.769C9.73554 208.953 43.6788 199.507 45.2623 183.719C46.8459 167.93 36.9918 143.195 62.8563 108.986C75.4521 92.3268 74.2939 93.7239 107.02 69.5147C139.747 45.3055 229.847 28 238.512 28C247.178 28 232.648 85.8296 203.616 120.564C174.585 155.299 137.108 137.406 116.522 145.826C95.9355 154.247 185 152 178.5 161C172 170 170 173.5 170 173.5C170 173.5 160.481 193.5 94.5 193.5Z" fill="#415850"/>
</svg>
