<svg width="256" height="256" viewBox="0 0 256 256" fill="none" xmlns="http://www.w3.org/2000/svg">
<rect width="256" height="256" rx="32" fill="#D5E7E3"/>
<path d="M102.798 193.192C36.8168 193.192 21.6703 240.585 15.7029 224.769C9.73554 208.953 43.6788 199.507 45.2623 183.719C46.8459 167.93 36.9918 143.195 62.8563 108.986C75.4521 92.3268 74.2939 93.7239 107.02 69.5147C139.747 45.3055 229.847 28 238.512 28C247.178 28 232.648 85.8296 203.616 120.564C174.585 155.299 137.108 137.406 116.522 145.826C95.9355 154.247 199.393 145.3 169.834 157.931C140.275 170.562 126.551 178.982 102.798 175.298C79.0445 171.614 168.778 193.192 102.798 193.192Z" fill="#415850"/>
<path d="M111.306 225.051C79.8918 223.814 30.8061 246.051 24.8061 236.551C18.8061 227.051 46.7616 231.102 93.2616 213.102C139.762 195.102 121.306 223.051 154.806 219.051C188.306 215.051 184.306 221.551 209.806 221.551C235.306 221.551 240.806 233.551 216.306 239.051C191.806 244.551 185.806 221.051 168.306 231.051C150.806 241.051 142.72 226.288 111.306 225.051Z" fill="#232C2C"/>
</svg>
